<svg width="150" height="21" viewBox="0 0 150 21" fill="none" xmlns="http://www.w3.org/2000/svg">
    <path fill-rule="evenodd" clip-rule="evenodd"
        d="M32.9782 6.40779C32.835 7.35325 31.9809 8.39688 30.3461 8.39688H24.431L25.0282 4.44966H30.9401C32.5749 4.44966 33.1191 5.46384 32.9782 6.40779ZM23.9367 11.6728H28.8078L31.1542 17.3417C31.3815 17.9164 31.8836 18.2857 32.7875 18.2857C33.9334 18.2857 34.8622 17.4429 35.0148 16.4295C35.0646 16.0919 35.0116 15.7551 34.8762 15.4863L33.0708 11.0996C35.4982 10.2213 36.7664 8.49807 37.0762 6.43875C37.5192 3.50798 35.7886 1.14282 30.8148 1.14282H23.44C22.2909 1.14282 21.2143 2.05279 21.0477 3.16665L19.0695 16.2626C18.9029 17.3742 19.7048 18.2857 20.8531 18.2857C22.0021 18.2857 23.0803 17.3742 23.2469 16.2626L23.9367 11.6728Z"
        fill="#FFD100"></path>
    <path fill-rule="evenodd" clip-rule="evenodd"
        d="M46.8519 6.15593L48.4038 11.3757H43.6432L46.8519 6.15593ZM49.2302 2.20612C48.9445 1.54063 48.5482 1.14282 47.6286 1.14282C46.7138 1.14282 46.1565 1.54063 45.7002 2.20612L36.5531 15.6944C36.4095 15.9301 36.254 16.2587 36.2121 16.5227C36.0566 17.522 36.7497 18.2857 37.9116 18.2857C38.8304 18.2857 39.4303 17.8195 39.8921 17.1227L41.7637 14.3968H49.3818L50.4032 17.1227C50.6495 17.8195 51.1065 18.2857 52.0253 18.2857C53.1857 18.2857 54.1179 17.522 54.2726 16.5227C54.3113 16.2587 54.2584 15.9301 54.1874 15.6944L49.2302 2.20612Z"
        fill="#FFD100"></path>
    <path fill-rule="evenodd" clip-rule="evenodd"
        d="M63.7465 4.58317H68.4086C69.389 4.58317 70.3129 3.81068 70.4572 2.86753C70.6008 1.91985 69.9129 1.14282 68.9333 1.14282H55.4012C54.4185 1.14282 53.4977 1.91985 53.3526 2.86753C53.2075 3.81068 53.8992 4.58317 54.8804 4.58317H59.5433L57.7683 16.2619C57.595 17.3735 58.406 18.2857 59.5597 18.2857C60.7182 18.2857 61.8045 17.3735 61.9731 16.2619L63.7465 4.58317Z"
        fill="#FFD100"></path>
    <path fill-rule="evenodd" clip-rule="evenodd"
        d="M75.4234 6.15593L76.9792 11.3757H72.2146L75.4234 6.15593ZM77.8017 2.20612C77.5128 1.54063 77.1174 1.14282 76.2025 1.14282C75.2852 1.14282 74.7279 1.54063 74.2709 2.20612L65.1236 15.6944C64.9815 15.9301 64.8252 16.2587 64.7834 16.5227C64.6287 17.522 65.3209 18.2857 66.4869 18.2857C67.3994 18.2857 68.0032 17.8195 68.4666 17.1227L70.3327 14.3968H77.9533L78.9748 17.1227C79.2226 17.8195 79.6781 18.2857 80.5946 18.2857C81.7557 18.2857 82.6864 17.522 82.8443 16.5227C82.8829 16.2587 82.8285 15.9301 82.759 15.6944L77.8017 2.20612Z"
        fill="#FFD100"></path>
    <path fill-rule="evenodd" clip-rule="evenodd"
        d="M92.3163 4.58317H96.9791C97.9596 4.58317 98.8869 3.81068 99.0288 2.86753C99.1716 1.91985 98.4837 1.14282 97.5023 1.14282H83.9721C82.9892 1.14282 82.0667 1.91985 81.9239 2.86753C81.7796 3.81068 82.466 4.58317 83.4481 4.58317H88.1117L86.3364 16.2619C86.1686 17.3735 86.975 18.2857 88.1336 18.2857C89.2907 18.2857 90.3724 17.3735 90.5411 16.2619L92.3163 4.58317Z"
        fill="#FFD100"></path>
    <path fill-rule="evenodd" clip-rule="evenodd"
        d="M114.539 4.03293C114.935 3.59871 115.15 3.30055 115.217 2.8351C115.36 1.87297 114.764 1.14282 113.626 1.14282C112.855 1.14282 112.413 1.40678 111.938 1.90569L106.413 7.7885L102.622 1.90569C102.351 1.47221 101.931 1.14282 101.159 1.14282C100.019 1.14282 99.2072 1.87297 99.0663 2.8351C98.9973 3.30055 99.1225 3.59871 99.3932 4.03293L103.907 11.1433L103.149 16.293C102.986 17.3882 103.757 18.2857 104.864 18.2857C105.971 18.2857 107.004 17.3882 107.168 16.293L107.926 11.1433L114.539 4.03293Z"
        fill="#FFD100"></path>
    <path fill-rule="evenodd" clip-rule="evenodd"
        d="M128.288 6.43875C128.15 7.38723 127.331 8.39688 125.75 8.39688H120.44L121.011 4.4844H126.322C127.902 4.4844 128.426 5.49631 128.288 6.43875ZM119.952 11.7385H124.727C129.532 11.7385 131.889 9.41256 132.316 6.47802C132.746 3.54121 131.079 1.14282 126.272 1.14282H119.48C118.371 1.14282 117.331 2.05279 117.168 3.16665L115.26 16.2626C115.097 17.3742 115.873 18.2857 116.983 18.2857C118.093 18.2857 119.133 17.3742 119.294 16.2626L119.952 11.7385Z"
        fill="#FFD100"></path>
    <path fill-rule="evenodd" clip-rule="evenodd"
        d="M138.252 11.3247H143.009C143.985 11.3247 144.9 10.5359 145.04 9.57768C145.182 8.61482 144.503 7.82611 143.527 7.82611H138.77L139.242 4.63753H147.474C148.446 4.63753 149.362 3.85266 149.505 2.89439C149.647 1.93153 148.966 1.14282 147.992 1.14282H137.677C136.53 1.14282 135.454 2.06733 135.287 3.19822L133.355 16.2272C133.191 17.3589 133.99 18.2857 135.139 18.2857H145.867C146.843 18.2857 147.759 17.4993 147.902 16.5341C148.041 15.5774 147.36 14.7894 146.386 14.7894H137.736L138.252 11.3247Z"
        fill="#FFD100"></path>
    <mask id="mask0_8725_23060" style="mask-type:alpha" maskUnits="userSpaceOnUse" x="19" y="1"
        width="131" height="18">
        <path fill-rule="evenodd" clip-rule="evenodd"
            d="M32.9782 6.40779C32.835 7.35325 31.9809 8.39688 30.3461 8.39688H24.431L25.0282 4.44966H30.9401C32.5749 4.44966 33.1191 5.46384 32.9782 6.40779ZM23.9367 11.6728H28.8078L31.1542 17.3417C31.3815 17.9164 31.8836 18.2857 32.7875 18.2857C33.9334 18.2857 34.8622 17.4429 35.0148 16.4295C35.0646 16.0919 35.0116 15.7551 34.8762 15.4863L33.0708 11.0996C35.4982 10.2213 36.7664 8.49807 37.0762 6.43875C37.5192 3.50798 35.7886 1.14282 30.8148 1.14282H23.44C22.2909 1.14282 21.2143 2.05279 21.0477 3.16665L19.0695 16.2626C18.9029 17.3742 19.7048 18.2857 20.8531 18.2857C22.0021 18.2857 23.0803 17.3742 23.2469 16.2626L23.9367 11.6728Z"
            fill="#00ACFF"></path>
        <path fill-rule="evenodd" clip-rule="evenodd"
            d="M46.8519 6.15593L48.4038 11.3757H43.6432L46.8519 6.15593ZM49.2302 2.20612C48.9445 1.54063 48.5482 1.14282 47.6286 1.14282C46.7138 1.14282 46.1565 1.54063 45.7002 2.20612L36.5531 15.6944C36.4095 15.9301 36.254 16.2587 36.2121 16.5227C36.0566 17.522 36.7497 18.2857 37.9116 18.2857C38.8304 18.2857 39.4303 17.8195 39.8921 17.1227L41.7637 14.3968H49.3818L50.4032 17.1227C50.6495 17.8195 51.1065 18.2857 52.0253 18.2857C53.1857 18.2857 54.1179 17.522 54.2726 16.5227C54.3113 16.2587 54.2584 15.9301 54.1874 15.6944L49.2302 2.20612Z"
            fill="#00ACFF"></path>
        <path fill-rule="evenodd" clip-rule="evenodd"
            d="M63.7465 4.58317H68.4086C69.389 4.58317 70.3129 3.81068 70.4572 2.86753C70.6008 1.91985 69.9129 1.14282 68.9333 1.14282H55.4012C54.4185 1.14282 53.4977 1.91985 53.3526 2.86753C53.2075 3.81068 53.8992 4.58317 54.8804 4.58317H59.5433L57.7683 16.2619C57.595 17.3735 58.406 18.2857 59.5597 18.2857C60.7182 18.2857 61.8045 17.3735 61.9731 16.2619L63.7465 4.58317Z"
            fill="#00ACFF"></path>
        <path fill-rule="evenodd" clip-rule="evenodd"
            d="M75.4234 6.15593L76.9792 11.3757H72.2146L75.4234 6.15593ZM77.8017 2.20612C77.5128 1.54063 77.1174 1.14282 76.2025 1.14282C75.2852 1.14282 74.7279 1.54063 74.2709 2.20612L65.1236 15.6944C64.9815 15.9301 64.8252 16.2587 64.7834 16.5227C64.6287 17.522 65.3209 18.2857 66.4869 18.2857C67.3994 18.2857 68.0032 17.8195 68.4666 17.1227L70.3327 14.3968H77.9533L78.9748 17.1227C79.2226 17.8195 79.6781 18.2857 80.5946 18.2857C81.7557 18.2857 82.6864 17.522 82.8443 16.5227C82.8829 16.2587 82.8285 15.9301 82.759 15.6944L77.8017 2.20612Z"
            fill="#00ACFF"></path>
        <path fill-rule="evenodd" clip-rule="evenodd"
            d="M92.3163 4.58317H96.9791C97.9596 4.58317 98.8869 3.81068 99.0288 2.86753C99.1716 1.91985 98.4837 1.14282 97.5023 1.14282H83.9721C82.9892 1.14282 82.0667 1.91985 81.9239 2.86753C81.7796 3.81068 82.466 4.58317 83.4481 4.58317H88.1117L86.3364 16.2619C86.1686 17.3735 86.975 18.2857 88.1336 18.2857C89.2907 18.2857 90.3724 17.3735 90.5411 16.2619L92.3163 4.58317Z"
            fill="#00ACFF"></path>
        <path fill-rule="evenodd" clip-rule="evenodd"
            d="M114.539 4.03293C114.935 3.59871 115.15 3.30055 115.217 2.8351C115.36 1.87297 114.764 1.14282 113.626 1.14282C112.855 1.14282 112.413 1.40678 111.938 1.90569L106.413 7.7885L102.622 1.90569C102.351 1.47221 101.931 1.14282 101.159 1.14282C100.019 1.14282 99.2072 1.87297 99.0663 2.8351C98.9973 3.30055 99.1225 3.59871 99.3932 4.03293L103.907 11.1433L103.149 16.293C102.986 17.3882 103.757 18.2857 104.864 18.2857C105.971 18.2857 107.004 17.3882 107.168 16.293L107.926 11.1433L114.539 4.03293Z"
            fill="#00ACFF"></path>
        <path fill-rule="evenodd" clip-rule="evenodd"
            d="M128.288 6.43875C128.15 7.38723 127.331 8.39688 125.75 8.39688H120.44L121.011 4.4844H126.322C127.902 4.4844 128.426 5.49631 128.288 6.43875ZM119.952 11.7385H124.727C129.532 11.7385 131.889 9.41256 132.316 6.47802C132.746 3.54121 131.079 1.14282 126.272 1.14282H119.48C118.371 1.14282 117.331 2.05279 117.168 3.16665L115.26 16.2626C115.097 17.3742 115.873 18.2857 116.983 18.2857C118.093 18.2857 119.133 17.3742 119.294 16.2626L119.952 11.7385Z"
            fill="#00ACFF"></path>
        <path fill-rule="evenodd" clip-rule="evenodd"
            d="M138.252 11.3247H143.009C143.985 11.3247 144.9 10.5359 145.04 9.57768C145.182 8.61482 144.503 7.82611 143.527 7.82611H138.77L139.242 4.63753H147.474C148.446 4.63753 149.362 3.85266 149.505 2.89439C149.647 1.93153 148.966 1.14282 147.992 1.14282H137.677C136.53 1.14282 135.454 2.06733 135.287 3.19822L133.355 16.2272C133.191 17.3589 133.99 18.2857 135.139 18.2857H145.867C146.843 18.2857 147.759 17.4993 147.902 16.5341C148.041 15.5774 147.36 14.7894 146.386 14.7894H137.736L138.252 11.3247Z"
            fill="#00ACFF"></path>
    </mask>
    <g mask="url(#mask0_8725_23060)">
        <path class="stroke-white dark:stroke-black"
            d="M17.4711 -7.8652L17.4722 -7.86523H164.232C164.296 -7.81593 164.383 -7.74928 164.49 -7.66647C164.742 -7.47044 165.109 -7.18391 165.563 -6.82276C166.471 -6.10035 167.729 -5.07996 169.126 -3.88846C171.927 -1.49984 175.264 1.55568 177.477 4.26953C178.59 5.63355 179.382 6.86755 179.703 7.85961C179.862 8.35196 179.892 8.74446 179.823 9.04697C179.757 9.33234 179.596 9.57775 179.278 9.78074C178.947 9.99278 178.435 10.1633 177.68 10.2437C176.929 10.3236 175.968 10.3113 174.762 10.1826C172.351 9.92533 169.017 9.20913 164.542 7.89691C155.487 5.2416 144.752 4.78901 133.012 5.36045C123.132 5.84141 112.505 7.05033 101.536 8.2982C99.471 8.53312 97.3938 8.76942 95.3073 9.0025C68.9329 11.9487 41.0309 14.3803 16.6415 7.16313C10.5263 5.35357 5.96818 3.75046 2.66999 2.33232C-0.641603 0.908415 -2.6368 -0.310101 -3.67037 -1.33147C-4.1846 -1.83964 -4.42495 -2.26428 -4.50182 -2.60529C-4.57414 -2.92614 -4.5128 -3.21913 -4.3136 -3.51562C-4.10417 -3.82733 -3.73828 -4.14548 -3.20418 -4.45872C-2.67425 -4.7695 -2.00738 -5.05887 -1.23062 -5.32601C1.89076 -6.39949 6.5522 -7.03745 10.4697 -7.40527C12.421 -7.58847 14.1747 -7.70358 15.4405 -7.77287C16.0733 -7.80751 16.5839 -7.83068 16.9359 -7.84518C17.1119 -7.85243 17.2482 -7.85752 17.3403 -7.86078L17.4448 -7.86435L17.4711 -7.8652Z"
            fill="#0082D1"></path>
    </g>
    <path fill-rule="evenodd" clip-rule="evenodd"
        d="M14.8389 8.71069H8.41743C7.45209 8.71069 6.55441 9.46955 6.412 10.4044C6.2696 11.34 6.9407 12.0989 7.90525 12.0989H14.3259C15.2944 12.0989 16.1913 11.34 16.3313 10.4044C16.4737 9.46955 15.8042 8.71069 14.8389 8.71069Z"
        fill="#FFD100"></path>
    <path fill-rule="evenodd" clip-rule="evenodd"
        d="M15.9513 1.33569H2.02193C1.05737 1.33569 0.160481 2.09607 0.0188659 3.03169C-0.122749 3.96884 0.548348 4.72846 1.5129 4.72846H15.4431C16.4076 4.72846 17.303 3.96884 17.4454 3.03169C17.5838 2.09607 16.9175 1.33569 15.9513 1.33569Z"
        fill="#0082D1"></path>
</svg>